<svg xmlns="http://www.w3.org/2000/svg" width="46" height="46" viewBox="0 0 46 46" role="img" aria-labelledby="facebook-icon">
        <title id="facebook-icon">Facebook</title>
        <path fill="#3C599A" d="M18.896 20.12h1.758v-1.708c0-.753.02-1.915.566-2.635.576-.762 1.368-1.28 2.73-1.28 2.218 0 3.15.316 3.15.316l-.438 2.605s-.73-.212-1.417-.212c-.684 0-1.296.245-1.296.93v1.985h2.803l-.194 2.547h-2.61v8.84h-3.297v-8.84h-1.758V20.12z"/>
        <path class="button--svg__border" fill="#E5E5E5" d="M23 3c11.027 0 20 8.972 20 20 0 11.027-8.973 20-20 20-11.028 0-20-8.973-20-20C3 11.972 11.972 3 23 3m0-2C10.85 1 1 10.85 1 23s9.85 22 22 22 22-9.85 22-22S35.15 1 23 1z"/>
      </svg>